<svg fill="none" height="20" viewBox="0 0 26 20" width="26" xmlns="http://www.w3.org/2000/svg"><path d="m25.7588 2.36717c-.9472.40166-1.9659.67312-3.0347.79542 1.0908-.62516 1.9284-1.61458 2.323-2.79332-1.0209.578829-2.1515.99868-3.3558 1.22499-.9635-.981042-2.3369-1.59426-3.8568-1.59426-2.9187 0-5.2842 2.26041-5.2842 5.04887 0 .39587.0463.78134.1367 1.15064-4.39197-.21028-8.28574-2.22098-10.89214-5.275362-.45489.745372-.71547 1.612562-.71547 2.538032 0 1.75193.93254 3.29708 2.35089 4.20286-.86621-.02588-1.68113-.2531-2.39363-.63155-.00102.02128-.00102.04226-.00102.06338 0 2.44675 1.82177 4.48693 4.23898 4.95113-.44304.1154-.90979.1764-1.39178.1764-.34086 0-.67133-.0308-.99455-.09.67291 2.0058 2.62411 3.4658 4.93693 3.5066-1.81004 1.3545-4.08824 2.1612-6.56424 2.1612-.426249 0-.847228-.0239-1.26097-.0703 2.33958 1.4325 5.11689 2.2681 8.10148 2.2681 9.71972 0 15.03432-7.6933 15.03432-14.36596 0-.2188-.0053-.43611-.0149-.65264 1.032-.71244 1.9278-1.60147 2.6367-2.61419" fill="#d89999"/></svg>